<?xml version="1.0" encoding="us-ascii" standalone="no"?><svg xmlns="http://www.w3.org/2000/svg" xmlns:xlink="http://www.w3.org/1999/xlink" contentStyleType="text/css" height="1820px" preserveAspectRatio="none" style="width:2116px;height:1820px;background:#FFFFFF;" version="1.1" viewBox="0 0 2116 1820" width="2116px" zoomAndPan="magnify"><defs/><g><!--class VMShell--><g id="elem_VMShell"><rect codeLine="1" fill="#F1F1F1" height="716.1719" id="VMShell" rx="2.5" ry="2.5" style="stroke:#181818;stroke-width:0.5;" width="807" x="7" y="418.57"/><ellipse cx="379.25" cy="434.57" fill="#ADD1B2" rx="11" ry="11" style="stroke:#181818;stroke-width:1.0;"/><path d="M382.2188,440.2106 Q381.6406,440.5075 381,440.6481 Q380.3594,440.8044 379.6563,440.8044 Q377.1563,440.8044 375.8281,439.1638 Q374.5156,437.5075 374.5156,434.3825 Q374.5156,431.2575 375.8281,429.6013 Q377.1563,427.945 379.6563,427.945 Q380.3594,427.945 381,428.1013 Q381.6563,428.2575 382.2188,428.5544 L382.2188,431.2731 Q381.5938,430.695 381,430.4294 Q380.4063,430.1481 379.7813,430.1481 Q378.4375,430.1481 377.75,431.2263 Q377.0625,432.2888 377.0625,434.3825 Q377.0625,436.4763 377.75,437.5544 Q378.4375,438.6169 379.7813,438.6169 Q380.4063,438.6169 381,438.3513 Q381.5938,438.07 382.2188,437.4919 L382.2188,440.2106 Z " fill="#000000"/><text fill="#000000" font-family="sans-serif" font-size="14" lengthAdjust="spacing" textLength="54" x="399.75" y="439.4167">VMShell</text><line style="stroke:#181818;stroke-width:0.5;" x1="8" x2="813" y1="450.57" y2="450.57"/><rect fill="none" height="6" style="stroke:#C82930;stroke-width:1.0;" width="6" x="15" y="461.2184"/><text fill="#000000" font-family="sans-serif" font-size="14" lengthAdjust="spacing" textLength="120" x="27" y="467.5651">memory: Memory</text><rect fill="none" height="6" style="stroke:#C82930;stroke-width:1.0;" width="6" x="15" y="477.5153"/><text fill="#000000" font-family="sans-serif" font-size="14" lengthAdjust="spacing" textLength="128" x="27" y="483.862">registers: Register</text><rect fill="none" height="6" style="stroke:#C82930;stroke-width:1.0;" width="6" x="15" y="493.8122"/><text fill="#000000" font-family="sans-serif" font-size="14" lengthAdjust="spacing" textLength="99" x="27" y="500.1589">loader: Loader</text><rect fill="none" height="6" style="stroke:#C82930;stroke-width:1.0;" width="6" x="15" y="510.1091"/><text fill="#000000" font-family="sans-serif" font-size="14" lengthAdjust="spacing" textLength="143" x="27" y="516.4557">cpus: Queue&lt;CPU&gt;</text><rect fill="none" height="6" style="stroke:#C82930;stroke-width:1.0;" width="6" x="15" y="526.4059"/><text fill="#000000" font-family="sans-serif" font-size="14" lengthAdjust="spacing" textLength="85" x="27" y="532.7526">new: Queue</text><rect fill="none" height="6" style="stroke:#C82930;stroke-width:1.0;" width="6" x="15" y="542.7028"/><text fill="#000000" font-family="sans-serif" font-size="14" lengthAdjust="spacing" textLength="94" x="27" y="549.0495">ready: Queue</text><rect fill="none" height="6" style="stroke:#C82930;stroke-width:1.0;" width="6" x="15" y="558.9997"/><text fill="#000000" font-family="sans-serif" font-size="14" lengthAdjust="spacing" textLength="103" x="27" y="565.3464">ready1: Queue</text><rect fill="none" height="6" style="stroke:#C82930;stroke-width:1.0;" width="6" x="15" y="575.2966"/><text fill="#000000" font-family="sans-serif" font-size="14" lengthAdjust="spacing" textLength="132" x="27" y="581.6432">fcfs_queue: Queue</text><rect fill="none" height="6" style="stroke:#C82930;stroke-width:1.0;" width="6" x="15" y="591.5934"/><text fill="#000000" font-family="sans-serif" font-size="14" lengthAdjust="spacing" textLength="103" x="27" y="597.9401">terminated: list</text><rect fill="none" height="6" style="stroke:#C82930;stroke-width:1.0;" width="6" x="15" y="607.8903"/><text fill="#000000" font-family="sans-serif" font-size="14" lengthAdjust="spacing" textLength="83" x="27" y="614.237">wait: Queue</text><rect fill="none" height="6" style="stroke:#C82930;stroke-width:1.0;" width="6" x="15" y="624.1872"/><text fill="#000000" font-family="sans-serif" font-size="14" lengthAdjust="spacing" textLength="112" x="27" y="630.5339">arriavl_times: list</text><rect fill="none" height="6" style="stroke:#C82930;stroke-width:1.0;" width="6" x="15" y="640.4841"/><text fill="#000000" font-family="sans-serif" font-size="14" lengthAdjust="spacing" textLength="62" x="27" y="646.8307">clock: int</text><rect fill="none" height="6" style="stroke:#C82930;stroke-width:1.0;" width="6" x="15" y="656.7809"/><text fill="#000000" font-family="sans-serif" font-size="14" lengthAdjust="spacing" textLength="88" x="27" y="663.1276">quantum: int</text><rect fill="none" height="6" style="stroke:#C82930;stroke-width:1.0;" width="6" x="15" y="673.0778"/><text fill="#000000" font-family="sans-serif" font-size="14" lengthAdjust="spacing" textLength="97" x="27" y="679.4245">quantum2: int</text><rect fill="none" height="6" style="stroke:#C82930;stroke-width:1.0;" width="6" x="15" y="689.3747"/><text fill="#000000" font-family="sans-serif" font-size="14" lengthAdjust="spacing" textLength="95" x="27" y="695.7214">verbose: bool</text><rect fill="none" height="6" style="stroke:#C82930;stroke-width:1.0;" width="6" x="15" y="705.6716"/><text fill="#000000" font-family="sans-serif" font-size="14" lengthAdjust="spacing" textLength="128" x="27" y="712.0182">programs_pid: dict</text><rect fill="none" height="6" style="stroke:#C82930;stroke-width:1.0;" width="6" x="15" y="721.9684"/><text fill="#000000" font-family="sans-serif" font-size="14" lengthAdjust="spacing" textLength="170" x="27" y="728.3151">arrival_program_dict: dict</text><rect fill="none" height="6" style="stroke:#C82930;stroke-width:1.0;" width="6" x="15" y="738.2653"/><text fill="#000000" font-family="sans-serif" font-size="14" lengthAdjust="spacing" textLength="47" x="27" y="744.612">pid: int</text><rect fill="none" height="6" style="stroke:#C82930;stroke-width:1.0;" width="6" x="15" y="754.5622"/><text fill="#000000" font-family="sans-serif" font-size="14" lengthAdjust="spacing" textLength="71" x="27" y="760.9089">Sched: str</text><rect fill="none" height="6" style="stroke:#C82930;stroke-width:1.0;" width="6" x="15" y="770.8591"/><text fill="#000000" font-family="sans-serif" font-size="14" lengthAdjust="spacing" textLength="78" x="27" y="777.2057">mmu: MMU</text><line style="stroke:#181818;stroke-width:0.5;" x1="8" x2="813" y1="784.5075" y2="784.5075"/><ellipse cx="18" cy="798.1559" fill="#84BE84" rx="3" ry="3" style="stroke:#038048;stroke-width:1.0;"/><text fill="#000000" font-family="sans-serif" font-size="14" lengthAdjust="spacing" textLength="299" x="27" y="801.5026">load_program(filename: str, arrival_time: int)</text><ellipse cx="18" cy="814.4528" fill="#84BE84" rx="3" ry="3" style="stroke:#038048;stroke-width:1.0;"/><text fill="#000000" font-family="sans-serif" font-size="14" lengthAdjust="spacing" textLength="166" x="27" y="817.7995">load_mmu(filename: str)</text><ellipse cx="18" cy="830.7497" fill="#84BE84" rx="3" ry="3" style="stroke:#038048;stroke-width:1.0;"/><text fill="#000000" font-family="sans-serif" font-size="14" lengthAdjust="spacing" textLength="98" x="27" y="834.0964">run_program()</text><ellipse cx="18" cy="847.0466" fill="#84BE84" rx="3" ry="3" style="stroke:#038048;stroke-width:1.0;"/><text fill="#000000" font-family="sans-serif" font-size="14" lengthAdjust="spacing" textLength="93" x="27" y="850.3932">round_robin()</text><ellipse cx="18" cy="863.3434" fill="#84BE84" rx="3" ry="3" style="stroke:#038048;stroke-width:1.0;"/><text fill="#000000" font-family="sans-serif" font-size="14" lengthAdjust="spacing" textLength="36" x="27" y="866.6901">mfq()</text><ellipse cx="18" cy="879.6403" fill="#84BE84" rx="3" ry="3" style="stroke:#038048;stroke-width:1.0;"/><text fill="#000000" font-family="sans-serif" font-size="14" lengthAdjust="spacing" textLength="34" x="27" y="882.987">fcfs()</text><ellipse cx="18" cy="895.9372" fill="#84BE84" rx="3" ry="3" style="stroke:#038048;stroke-width:1.0;"/><text fill="#000000" font-family="sans-serif" font-size="14" lengthAdjust="spacing" textLength="781" x="27" y="899.2839">promote_demote(running: CPU, promote_destination: Queue, demote_destination: Queue, source: Queue): bool</text><ellipse cx="18" cy="912.2341" fill="#84BE84" rx="3" ry="3" style="stroke:#038048;stroke-width:1.0;"/><text fill="#000000" font-family="sans-serif" font-size="14" lengthAdjust="spacing" textLength="143" x="27" y="915.5807">start_new_instance()</text><ellipse cx="18" cy="928.5309" fill="#84BE84" rx="3" ry="3" style="stroke:#038048;stroke-width:1.0;"/><text fill="#000000" font-family="sans-serif" font-size="14" lengthAdjust="spacing" textLength="193" x="27" y="931.8776">errordump(error: Exception)</text><ellipse cx="18" cy="944.8278" fill="#84BE84" rx="3" ry="3" style="stroke:#038048;stroke-width:1.0;"/><text fill="#000000" font-family="sans-serif" font-size="14" lengthAdjust="spacing" textLength="121" x="27" y="948.1745">print_errordump()</text><ellipse cx="18" cy="961.1247" fill="#84BE84" rx="3" ry="3" style="stroke:#038048;stroke-width:1.0;"/><text fill="#000000" font-family="sans-serif" font-size="14" lengthAdjust="spacing" textLength="84" x="27" y="964.4714">print_gantt()</text><ellipse cx="18" cy="977.4216" fill="#84BE84" rx="3" ry="3" style="stroke:#038048;stroke-width:1.0;"/><text fill="#000000" font-family="sans-serif" font-size="14" lengthAdjust="spacing" textLength="124" x="27" y="980.7682">print_main_gantt()</text><ellipse cx="18" cy="993.7184" fill="#84BE84" rx="3" ry="3" style="stroke:#038048;stroke-width:1.0;"/><text fill="#000000" font-family="sans-serif" font-size="14" lengthAdjust="spacing" textLength="124" x="27" y="997.0651">print_page_table()</text><ellipse cx="18" cy="1010.0153" fill="#84BE84" rx="3" ry="3" style="stroke:#038048;stroke-width:1.0;"/><text fill="#000000" font-family="sans-serif" font-size="14" lengthAdjust="spacing" textLength="27" x="27" y="1013.362">ps()</text><ellipse cx="18" cy="1026.3122" fill="#84BE84" rx="3" ry="3" style="stroke:#038048;stroke-width:1.0;"/><text fill="#000000" font-family="sans-serif" font-size="14" lengthAdjust="spacing" textLength="110" x="27" y="1029.6589">get_page_size()</text><ellipse cx="18" cy="1042.6091" fill="#84BE84" rx="3" ry="3" style="stroke:#038048;stroke-width:1.0;"/><text fill="#000000" font-family="sans-serif" font-size="14" lengthAdjust="spacing" textLength="165" x="27" y="1045.9557">set_page_number(args)</text><ellipse cx="18" cy="1058.9059" fill="#84BE84" rx="3" ry="3" style="stroke:#038048;stroke-width:1.0;"/><text fill="#000000" font-family="sans-serif" font-size="14" lengthAdjust="spacing" textLength="271" x="27" y="1062.2526">run_command(command: str, args: list)</text><ellipse cx="18" cy="1075.2028" fill="#84BE84" rx="3" ry="3" style="stroke:#038048;stroke-width:1.0;"/><text fill="#000000" font-family="sans-serif" font-size="14" lengthAdjust="spacing" textLength="288" x="27" y="1078.5495">osx(filename: str, loader_address: int = 0)</text><ellipse cx="18" cy="1091.4997" fill="#84BE84" rx="3" ry="3" style="stroke:#038048;stroke-width:1.0;"/><text fill="#000000" font-family="sans-serif" font-size="14" lengthAdjust="spacing" textLength="78" x="27" y="1094.8464">print_help()</text><ellipse cx="18" cy="1107.7966" fill="#84BE84" rx="3" ry="3" style="stroke:#038048;stroke-width:1.0;"/><text fill="#000000" font-family="sans-serif" font-size="14" lengthAdjust="spacing" textLength="101" x="27" y="1111.1432">print_queues()</text><ellipse cx="18" cy="1124.0934" fill="#84BE84" rx="3" ry="3" style="stroke:#038048;stroke-width:1.0;"/><text fill="#000000" font-family="sans-serif" font-size="14" lengthAdjust="spacing" textLength="41" x="27" y="1127.4401">start()</text></g><!--class Loader--><g id="elem_Loader"><rect codeLine="45" fill="#F1F1F1" height="80.5938" id="Loader" rx="2.5" ry="2.5" style="stroke:#181818;stroke-width:0.5;" width="411" x="852" y="277.97"/><ellipse cx="1029.75" cy="293.97" fill="#ADD1B2" rx="11" ry="11" style="stroke:#181818;stroke-width:1.0;"/><path d="M1032.7188,299.6106 Q1032.1406,299.9075 1031.5,300.0481 Q1030.8594,300.2044 1030.1563,300.2044 Q1027.6563,300.2044 1026.3281,298.5638 Q1025.0156,296.9075 1025.0156,293.7825 Q1025.0156,290.6575 1026.3281,289.0013 Q1027.6563,287.345 1030.1563,287.345 Q1030.8594,287.345 1031.5,287.5013 Q1032.1563,287.6575 1032.7188,287.9544 L1032.7188,290.6731 Q1032.0938,290.095 1031.5,289.8294 Q1030.9063,289.5481 1030.2813,289.5481 Q1028.9375,289.5481 1028.25,290.6263 Q1027.5625,291.6888 1027.5625,293.7825 Q1027.5625,295.8763 1028.25,296.9544 Q1028.9375,298.0169 1030.2813,298.0169 Q1030.9063,298.0169 1031.5,297.7513 Q1032.0938,297.47 1032.7188,296.8919 L1032.7188,299.6106 Z " fill="#000000"/><text fill="#000000" font-family="sans-serif" font-size="14" lengthAdjust="spacing" textLength="47" x="1050.25" y="298.8167">Loader</text><line style="stroke:#181818;stroke-width:0.5;" x1="853" x2="1262" y1="309.97" y2="309.97"/><line style="stroke:#181818;stroke-width:0.5;" x1="853" x2="1262" y1="317.97" y2="317.97"/><ellipse cx="863" cy="331.6184" fill="#84BE84" rx="3" ry="3" style="stroke:#038048;stroke-width:1.0;"/><text fill="#000000" font-family="sans-serif" font-size="14" lengthAdjust="spacing" textLength="285" x="872" y="334.9651">loader(filename: str, verbose: bool): tuple</text><ellipse cx="863" cy="347.9153" fill="#84BE84" rx="3" ry="3" style="stroke:#038048;stroke-width:1.0;"/><text fill="#000000" font-family="sans-serif" font-size="14" lengthAdjust="spacing" textLength="385" x="872" y="351.262">remove_loader_address(loader_address: int, b_size: int)</text></g><!--class Register--><g id="elem_Register"><rect codeLine="50" fill="#F1F1F1" height="162.0781" id="Register" rx="2.5" ry="2.5" style="stroke:#181818;stroke-width:0.5;" width="265" x="1301" y="695.61"/><ellipse cx="1400.25" cy="711.61" fill="#ADD1B2" rx="11" ry="11" style="stroke:#181818;stroke-width:1.0;"/><path d="M1403.2188,717.2506 Q1402.6406,717.5475 1402,717.6881 Q1401.3594,717.8444 1400.6563,717.8444 Q1398.1563,717.8444 1396.8281,716.2038 Q1395.5156,714.5475 1395.5156,711.4225 Q1395.5156,708.2975 1396.8281,706.6413 Q1398.1563,704.985 1400.6563,704.985 Q1401.3594,704.985 1402,705.1413 Q1402.6563,705.2975 1403.2188,705.5944 L1403.2188,708.3131 Q1402.5938,707.735 1402,707.4694 Q1401.4063,707.1881 1400.7813,707.1881 Q1399.4375,707.1881 1398.75,708.2663 Q1398.0625,709.3288 1398.0625,711.4225 Q1398.0625,713.5163 1398.75,714.5944 Q1399.4375,715.6569 1400.7813,715.6569 Q1401.4063,715.6569 1402,715.3913 Q1402.5938,715.11 1403.2188,714.5319 L1403.2188,717.2506 Z " fill="#000000"/><text fill="#000000" font-family="sans-serif" font-size="14" lengthAdjust="spacing" textLength="58" x="1420.75" y="716.4567">Register</text><line style="stroke:#181818;stroke-width:0.5;" x1="1302" x2="1565" y1="727.61" y2="727.61"/><rect fill="none" height="6" style="stroke:#C82930;stroke-width:1.0;" width="6" x="1309" y="738.2584"/><text fill="#000000" font-family="sans-serif" font-size="14" lengthAdjust="spacing" textLength="64" x="1321" y="744.6051">data: dict</text><line style="stroke:#181818;stroke-width:0.5;" x1="1302" x2="1565" y1="751.9069" y2="751.9069"/><ellipse cx="1312" cy="765.5553" fill="#84BE84" rx="3" ry="3" style="stroke:#038048;stroke-width:1.0;"/><text fill="#000000" font-family="sans-serif" font-size="14" lengthAdjust="spacing" textLength="239" x="1321" y="768.902">write(register_name: str, value: int)</text><ellipse cx="1312" cy="781.8522" fill="#84BE84" rx="3" ry="3" style="stroke:#038048;stroke-width:1.0;"/><text fill="#000000" font-family="sans-serif" font-size="14" lengthAdjust="spacing" textLength="193" x="1321" y="785.1989">read(register_name: str): int</text><ellipse cx="1312" cy="798.1491" fill="#84BE84" rx="3" ry="3" style="stroke:#038048;stroke-width:1.0;"/><text fill="#000000" font-family="sans-serif" font-size="14" lengthAdjust="spacing" textLength="206" x="1321" y="801.4957">increment(register_name: str)</text><ellipse cx="1312" cy="814.4459" fill="#84BE84" rx="3" ry="3" style="stroke:#038048;stroke-width:1.0;"/><text fill="#000000" font-family="sans-serif" font-size="14" lengthAdjust="spacing" textLength="43" x="1321" y="817.7926">clear()</text><ellipse cx="1312" cy="830.7428" fill="#84BE84" rx="3" ry="3" style="stroke:#038048;stroke-width:1.0;"/><text fill="#000000" font-family="sans-serif" font-size="14" lengthAdjust="spacing" textLength="81" x="1321" y="834.0895">clearClock()</text><ellipse cx="1312" cy="847.0397" fill="#84BE84" rx="3" ry="3" style="stroke:#038048;stroke-width:1.0;"/><text fill="#000000" font-family="sans-serif" font-size="14" lengthAdjust="spacing" textLength="86" x="1321" y="850.3864">clear_gantt()</text></g><!--class Memory--><g id="elem_Memory"><rect codeLine="60" fill="#F1F1F1" height="210.9688" id="Memory" rx="2.5" ry="2.5" style="stroke:#181818;stroke-width:0.5;" width="221" x="947" y="7"/><ellipse cx="1025.75" cy="23" fill="#ADD1B2" rx="11" ry="11" style="stroke:#181818;stroke-width:1.0;"/><path d="M1028.7188,28.6406 Q1028.1406,28.9375 1027.5,29.0781 Q1026.8594,29.2344 1026.1563,29.2344 Q1023.6563,29.2344 1022.3281,27.5938 Q1021.0156,25.9375 1021.0156,22.8125 Q1021.0156,19.6875 1022.3281,18.0313 Q1023.6563,16.375 1026.1563,16.375 Q1026.8594,16.375 1027.5,16.5313 Q1028.1563,16.6875 1028.7188,16.9844 L1028.7188,19.7031 Q1028.0938,19.125 1027.5,18.8594 Q1026.9063,18.5781 1026.2813,18.5781 Q1024.9375,18.5781 1024.25,19.6563 Q1023.5625,20.7188 1023.5625,22.8125 Q1023.5625,24.9063 1024.25,25.9844 Q1024.9375,27.0469 1026.2813,27.0469 Q1026.9063,27.0469 1027.5,26.7813 Q1028.0938,26.5 1028.7188,25.9219 L1028.7188,28.6406 Z " fill="#000000"/><text fill="#000000" font-family="sans-serif" font-size="14" lengthAdjust="spacing" textLength="55" x="1046.25" y="27.8467">Memory</text><line style="stroke:#181818;stroke-width:0.5;" x1="948" x2="1167" y1="39" y2="39"/><rect fill="none" height="6" style="stroke:#C82930;stroke-width:1.0;" width="6" x="955" y="49.6484"/><text fill="#000000" font-family="sans-serif" font-size="14" lengthAdjust="spacing" textLength="54" x="967" y="55.9951">size: int</text><rect fill="none" height="6" style="stroke:#C82930;stroke-width:1.0;" width="6" x="955" y="65.9453"/><text fill="#000000" font-family="sans-serif" font-size="14" lengthAdjust="spacing" textLength="58" x="967" y="72.292">data: list</text><rect fill="none" height="6" style="stroke:#C82930;stroke-width:1.0;" width="6" x="955" y="82.2422"/><text fill="#000000" font-family="sans-serif" font-size="14" lengthAdjust="spacing" textLength="96" x="967" y="88.5889">page_size: int</text><rect fill="none" height="6" style="stroke:#C82930;stroke-width:1.0;" width="6" x="955" y="98.5391"/><text fill="#000000" font-family="sans-serif" font-size="14" lengthAdjust="spacing" textLength="110" x="967" y="104.8857">page_table: dict</text><rect fill="none" height="6" style="stroke:#C82930;stroke-width:1.0;" width="6" x="955" y="114.8359"/><text fill="#000000" font-family="sans-serif" font-size="14" lengthAdjust="spacing" textLength="105" x="967" y="121.1826">free_pages: list</text><line style="stroke:#181818;stroke-width:0.5;" x1="948" x2="1167" y1="128.4844" y2="128.4844"/><ellipse cx="958" cy="142.1328" fill="#84BE84" rx="3" ry="3" style="stroke:#038048;stroke-width:1.0;"/><text fill="#000000" font-family="sans-serif" font-size="14" lengthAdjust="spacing" textLength="163" x="967" y="145.4795">set_page_size(size: int)</text><ellipse cx="958" cy="158.4297" fill="#84BE84" rx="3" ry="3" style="stroke:#038048;stroke-width:1.0;"/><text fill="#000000" font-family="sans-serif" font-size="14" lengthAdjust="spacing" textLength="136" x="967" y="161.7764">get_page_size(): int</text><ellipse cx="958" cy="174.7266" fill="#84BE84" rx="3" ry="3" style="stroke:#038048;stroke-width:1.0;"/><text fill="#000000" font-family="sans-serif" font-size="14" lengthAdjust="spacing" textLength="165" x="967" y="178.0732">set_page_number(args)</text><ellipse cx="958" cy="191.0234" fill="#84BE84" rx="3" ry="3" style="stroke:#038048;stroke-width:1.0;"/><text fill="#000000" font-family="sans-serif" font-size="14" lengthAdjust="spacing" textLength="149" x="967" y="194.3701">read(address: int): int</text><ellipse cx="958" cy="207.3203" fill="#84BE84" rx="3" ry="3" style="stroke:#038048;stroke-width:1.0;"/><text fill="#000000" font-family="sans-serif" font-size="14" lengthAdjust="spacing" textLength="195" x="967" y="210.667">write(address: int, value: int)</text></g><!--class CPU--><g id="elem_CPU"><rect codeLine="73" fill="#F1F1F1" height="618.3906" id="CPU" rx="2.5" ry="2.5" style="stroke:#181818;stroke-width:0.5;" width="1352" x="757.5" y="1194.74"/><ellipse cx="1414.75" cy="1210.74" fill="#ADD1B2" rx="11" ry="11" style="stroke:#181818;stroke-width:1.0;"/><path d="M1417.7188,1216.3806 Q1417.1406,1216.6775 1416.5,1216.8181 Q1415.8594,1216.9744 1415.1563,1216.9744 Q1412.6563,1216.9744 1411.3281,1215.3338 Q1410.0156,1213.6775 1410.0156,1210.5525 Q1410.0156,1207.4275 1411.3281,1205.7713 Q1412.6563,1204.115 1415.1563,1204.115 Q1415.8594,1204.115 1416.5,1204.2713 Q1417.1563,1204.4275 1417.7188,1204.7244 L1417.7188,1207.4431 Q1417.0938,1206.865 1416.5,1206.5994 Q1415.9063,1206.3181 1415.2813,1206.3181 Q1413.9375,1206.3181 1413.25,1207.3963 Q1412.5625,1208.4588 1412.5625,1210.5525 Q1412.5625,1212.6463 1413.25,1213.7244 Q1413.9375,1214.7869 1415.2813,1214.7869 Q1415.9063,1214.7869 1416.5,1214.5213 Q1417.0938,1214.24 1417.7188,1213.6619 L1417.7188,1216.3806 Z " fill="#000000"/><text fill="#000000" font-family="sans-serif" font-size="14" lengthAdjust="spacing" textLength="29" x="1435.25" y="1215.5867">CPU</text><line style="stroke:#181818;stroke-width:0.5;" x1="758.5" x2="2108.5" y1="1226.74" y2="1226.74"/><rect fill="none" height="6" style="stroke:#C82930;stroke-width:1.0;" width="6" x="765.5" y="1237.3884"/><text fill="#000000" font-family="sans-serif" font-size="14" lengthAdjust="spacing" textLength="120" x="777.5" y="1243.7351">memory: Memory</text><rect fill="none" height="6" style="stroke:#C82930;stroke-width:1.0;" width="6" x="765.5" y="1253.6853"/><text fill="#000000" font-family="sans-serif" font-size="14" lengthAdjust="spacing" textLength="136" x="777.5" y="1260.032">registers: Registers</text><rect fill="none" height="6" style="stroke:#C82930;stroke-width:1.0;" width="6" x="765.5" y="1269.9822"/><text fill="#000000" font-family="sans-serif" font-size="14" lengthAdjust="spacing" textLength="132" x="777.5" y="1276.3289">loader_address: int</text><rect fill="none" height="6" style="stroke:#C82930;stroke-width:1.0;" width="6" x="765.5" y="1286.2791"/><text fill="#000000" font-family="sans-serif" font-size="14" lengthAdjust="spacing" textLength="70" x="777.5" y="1292.6257">b_size: int</text><rect fill="none" height="6" style="stroke:#C82930;stroke-width:1.0;" width="6" x="765.5" y="1302.5759"/><text fill="#000000" font-family="sans-serif" font-size="14" lengthAdjust="spacing" textLength="95" x="777.5" y="1308.9226">verbose: bool</text><rect fill="none" height="6" style="stroke:#C82930;stroke-width:1.0;" width="6" x="765.5" y="1318.8728"/><text fill="#000000" font-family="sans-serif" font-size="14" lengthAdjust="spacing" textLength="62" x="777.5" y="1325.2195">state: str</text><rect fill="none" height="6" style="stroke:#C82930;stroke-width:1.0;" width="6" x="765.5" y="1335.1697"/><text fill="#000000" font-family="sans-serif" font-size="14" lengthAdjust="spacing" textLength="219" x="777.5" y="1341.5164">current_instruction_address: int</text><rect fill="none" height="6" style="stroke:#C82930;stroke-width:1.0;" width="6" x="765.5" y="1351.4666"/><text fill="#000000" font-family="sans-serif" font-size="14" lengthAdjust="spacing" textLength="45" x="777.5" y="1357.8132">PC: int</text><rect fill="none" height="6" style="stroke:#C82930;stroke-width:1.0;" width="6" x="765.5" y="1367.7634"/><text fill="#000000" font-family="sans-serif" font-size="14" lengthAdjust="spacing" textLength="102" x="777.5" y="1374.1101">arrival_time: int</text><rect fill="none" height="6" style="stroke:#C82930;stroke-width:1.0;" width="6" x="765.5" y="1384.0603"/><text fill="#000000" font-family="sans-serif" font-size="14" lengthAdjust="spacing" textLength="47" x="777.5" y="1390.407">pid: int</text><rect fill="none" height="6" style="stroke:#C82930;stroke-width:1.0;" width="6" x="765.5" y="1400.3572"/><text fill="#000000" font-family="sans-serif" font-size="14" lengthAdjust="spacing" textLength="194" x="777.5" y="1406.7039">consecutive_cpu_bursts: int</text><rect fill="none" height="6" style="stroke:#C82930;stroke-width:1.0;" width="6" x="765.5" y="1416.6541"/><text fill="#000000" font-family="sans-serif" font-size="14" lengthAdjust="spacing" textLength="151" x="777.5" y="1423.0007">successful_bursts: int</text><rect fill="none" height="6" style="stroke:#C82930;stroke-width:1.0;" width="6" x="765.5" y="1432.9509"/><text fill="#000000" font-family="sans-serif" font-size="14" lengthAdjust="spacing" textLength="113" x="777.5" y="1439.2976">failed_bursts: int</text><rect fill="none" height="6" style="stroke:#C82930;stroke-width:1.0;" width="6" x="765.5" y="1449.2478"/><text fill="#000000" font-family="sans-serif" font-size="14" lengthAdjust="spacing" textLength="174" x="777.5" y="1455.5945">local_registers: Registers</text><rect fill="none" height="6" style="stroke:#C82930;stroke-width:1.0;" width="6" x="765.5" y="1465.5447"/><text fill="#000000" font-family="sans-serif" font-size="14" lengthAdjust="spacing" textLength="165" x="777.5" y="1471.8914">process_pages: List[int]</text><rect fill="none" height="6" style="stroke:#C82930;stroke-width:1.0;" width="6" x="765.5" y="1481.8416"/><text fill="#000000" font-family="sans-serif" font-size="14" lengthAdjust="spacing" textLength="125" x="777.5" y="1488.1882">reset_address: int</text><rect fill="none" height="6" style="stroke:#C82930;stroke-width:1.0;" width="6" x="765.5" y="1498.1384"/><text fill="#000000" font-family="sans-serif" font-size="14" lengthAdjust="spacing" textLength="118" x="777.5" y="1504.4851">current_page: int</text><line style="stroke:#181818;stroke-width:0.5;" x1="758.5" x2="2108.5" y1="1511.7869" y2="1511.7869"/><ellipse cx="768.5" cy="1525.4353" fill="#84BE84" rx="3" ry="3" style="stroke:#038048;stroke-width:1.0;"/><text fill="#000000" font-family="sans-serif" font-size="14" lengthAdjust="spacing" textLength="1326" x="777.5" y="1528.782">__init__(memory: Memory, registers: Registers, loader_address: int, b_size: int, first_instruction_address: int, verbose: bool, pid: int = None, arrival_time: int = 0, process_pages: List[int] = None)</text><ellipse cx="768.5" cy="1541.7322" fill="#84BE84" rx="3" ry="3" style="stroke:#038048;stroke-width:1.0;"/><text fill="#000000" font-family="sans-serif" font-size="14" lengthAdjust="spacing" textLength="202" x="777.5" y="1545.0789">increment_cpu_burst(): None</text><ellipse cx="768.5" cy="1558.0291" fill="#84BE84" rx="3" ry="3" style="stroke:#038048;stroke-width:1.0;"/><text fill="#000000" font-family="sans-serif" font-size="14" lengthAdjust="spacing" textLength="154" x="777.5" y="1561.3757">check_cpu_burst(): int</text><ellipse cx="768.5" cy="1574.3259" fill="#84BE84" rx="3" ry="3" style="stroke:#038048;stroke-width:1.0;"/><text fill="#000000" font-family="sans-serif" font-size="14" lengthAdjust="spacing" textLength="105" x="777.5" y="1577.6726">fetch(): List[str]</text><ellipse cx="768.5" cy="1590.6228" fill="#84BE84" rx="3" ry="3" style="stroke:#038048;stroke-width:1.0;"/><text fill="#000000" font-family="sans-serif" font-size="14" lengthAdjust="spacing" textLength="346" x="777.5" y="1593.9695">decode(instruction: List[str]): Tuple[int, int, int, int]</text><ellipse cx="768.5" cy="1606.9197" fill="#84BE84" rx="3" ry="3" style="stroke:#038048;stroke-width:1.0;"/><text fill="#000000" font-family="sans-serif" font-size="14" lengthAdjust="spacing" textLength="245" x="777.5" y="1610.2664">execute(instruction: List[str]): None</text><ellipse cx="768.5" cy="1623.2166" fill="#84BE84" rx="3" ry="3" style="stroke:#038048;stroke-width:1.0;"/><text fill="#000000" font-family="sans-serif" font-size="14" lengthAdjust="spacing" textLength="372" x="777.5" y="1626.5632">add(operand1: int, operand2: int, dest_reg: str): None</text><ellipse cx="768.5" cy="1639.5134" fill="#84BE84" rx="3" ry="3" style="stroke:#038048;stroke-width:1.0;"/><text fill="#000000" font-family="sans-serif" font-size="14" lengthAdjust="spacing" textLength="403" x="777.5" y="1642.8601">subtract(operand1: int, operand2: int, dest_reg: str): None</text><ellipse cx="768.5" cy="1655.8103" fill="#84BE84" rx="3" ry="3" style="stroke:#038048;stroke-width:1.0;"/><text fill="#000000" font-family="sans-serif" font-size="14" lengthAdjust="spacing" textLength="398" x="777.5" y="1659.157">multiply(operand1: int, operand2: int, dest_reg: str): None</text><ellipse cx="768.5" cy="1672.1072" fill="#84BE84" rx="3" ry="3" style="stroke:#038048;stroke-width:1.0;"/><text fill="#000000" font-family="sans-serif" font-size="14" lengthAdjust="spacing" textLength="386" x="777.5" y="1675.4539">divide(operand1: int, operand2: int, dest_reg: str): None</text><ellipse cx="768.5" cy="1688.4041" fill="#84BE84" rx="3" ry="3" style="stroke:#038048;stroke-width:1.0;"/><text fill="#000000" font-family="sans-serif" font-size="14" lengthAdjust="spacing" textLength="297" x="777.5" y="1691.7507">mov(reg1_index: int, reg2_index: int): None</text><ellipse cx="768.5" cy="1704.7009" fill="#84BE84" rx="3" ry="3" style="stroke:#038048;stroke-width:1.0;"/><text fill="#000000" font-family="sans-serif" font-size="14" lengthAdjust="spacing" textLength="349" x="777.5" y="1708.0476">and_operation(operand1: int, operand2: int): None</text><ellipse cx="768.5" cy="1720.9978" fill="#84BE84" rx="3" ry="3" style="stroke:#038048;stroke-width:1.0;"/><text fill="#000000" font-family="sans-serif" font-size="14" lengthAdjust="spacing" textLength="337" x="777.5" y="1724.3445">or_operation(operand1: int, operand2: int): None</text><ellipse cx="768.5" cy="1737.2947" fill="#84BE84" rx="3" ry="3" style="stroke:#038048;stroke-width:1.0;"/><text fill="#000000" font-family="sans-serif" font-size="14" lengthAdjust="spacing" textLength="192" x="777.5" y="1740.6414">mvi(reg: str, imm: int): None</text><ellipse cx="768.5" cy="1753.5916" fill="#84BE84" rx="3" ry="3" style="stroke:#038048;stroke-width:1.0;"/><text fill="#000000" font-family="sans-serif" font-size="14" lengthAdjust="spacing" textLength="177" x="777.5" y="1756.9382">execute_program(): None</text><ellipse cx="768.5" cy="1769.8884" fill="#84BE84" rx="3" ry="3" style="stroke:#038048;stroke-width:1.0;"/><text fill="#000000" font-family="sans-serif" font-size="14" lengthAdjust="spacing" textLength="240" x="777.5" y="1773.2351">execute_single_instruction(): None</text><ellipse cx="768.5" cy="1786.1853" fill="#84BE84" rx="3" ry="3" style="stroke:#038048;stroke-width:1.0;"/><text fill="#000000" font-family="sans-serif" font-size="14" lengthAdjust="spacing" textLength="157" x="777.5" y="1789.532">copy_registers(): None</text><ellipse cx="768.5" cy="1802.4822" fill="#84BE84" rx="3" ry="3" style="stroke:#038048;stroke-width:1.0;"/><text fill="#000000" font-family="sans-serif" font-size="14" lengthAdjust="spacing" textLength="174" x="777.5" y="1805.8289">restore_registers(): None</text></g><!--class ProgramLoadError--><g id="elem_ProgramLoadError"><rect codeLine="113" fill="#F1F1F1" height="48" id="ProgramLoadError" rx="2.5" ry="2.5" style="stroke:#181818;stroke-width:0.5;" width="156" x="1202.5" y="88.49"/><ellipse cx="1217.5" cy="104.49" fill="#ADD1B2" rx="11" ry="11" style="stroke:#181818;stroke-width:1.0;"/><path d="M1220.4688,110.1306 Q1219.8906,110.4275 1219.25,110.5681 Q1218.6094,110.7244 1217.9063,110.7244 Q1215.4063,110.7244 1214.0781,109.0838 Q1212.7656,107.4275 1212.7656,104.3025 Q1212.7656,101.1775 1214.0781,99.5213 Q1215.4063,97.865 1217.9063,97.865 Q1218.6094,97.865 1219.25,98.0213 Q1219.9063,98.1775 1220.4688,98.4744 L1220.4688,101.1931 Q1219.8438,100.615 1219.25,100.3494 Q1218.6563,100.0681 1218.0313,100.0681 Q1216.6875,100.0681 1216,101.1463 Q1215.3125,102.2088 1215.3125,104.3025 Q1215.3125,106.3963 1216,107.4744 Q1216.6875,108.5369 1218.0313,108.5369 Q1218.6563,108.5369 1219.25,108.2713 Q1219.8438,107.99 1220.4688,107.4119 L1220.4688,110.1306 Z " fill="#000000"/><text fill="#000000" font-family="sans-serif" font-size="14" lengthAdjust="spacing" textLength="124" x="1231.5" y="109.3367">ProgramLoadError</text><line style="stroke:#181818;stroke-width:0.5;" x1="1203.5" x2="1357.5" y1="120.49" y2="120.49"/><line style="stroke:#181818;stroke-width:0.5;" x1="1203.5" x2="1357.5" y1="128.49" y2="128.49"/></g><!--class MMU--><g id="elem_MMU"><rect codeLine="116" fill="#F1F1F1" height="96.8906" id="MMU" rx="2.5" ry="2.5" style="stroke:#181818;stroke-width:0.5;" width="417" x="849" y="728.21"/><ellipse cx="1036.25" cy="744.21" fill="#ADD1B2" rx="11" ry="11" style="stroke:#181818;stroke-width:1.0;"/><path d="M1039.2188,749.8506 Q1038.6406,750.1475 1038,750.2881 Q1037.3594,750.4444 1036.6563,750.4444 Q1034.1563,750.4444 1032.8281,748.8038 Q1031.5156,747.1475 1031.5156,744.0225 Q1031.5156,740.8975 1032.8281,739.2413 Q1034.1563,737.585 1036.6563,737.585 Q1037.3594,737.585 1038,737.7413 Q1038.6563,737.8975 1039.2188,738.1944 L1039.2188,740.9131 Q1038.5938,740.335 1038,740.0694 Q1037.4063,739.7881 1036.7813,739.7881 Q1035.4375,739.7881 1034.75,740.8663 Q1034.0625,741.9288 1034.0625,744.0225 Q1034.0625,746.1163 1034.75,747.1944 Q1035.4375,748.2569 1036.7813,748.2569 Q1037.4063,748.2569 1038,747.9913 Q1038.5938,747.71 1039.2188,747.1319 L1039.2188,749.8506 Z " fill="#000000"/><text fill="#000000" font-family="sans-serif" font-size="14" lengthAdjust="spacing" textLength="34" x="1056.75" y="749.0567">MMU</text><line style="stroke:#181818;stroke-width:0.5;" x1="850" x2="1265" y1="760.21" y2="760.21"/><rect fill="none" height="6" style="stroke:#C82930;stroke-width:1.0;" width="6" x="857" y="770.8584"/><text fill="#000000" font-family="sans-serif" font-size="14" lengthAdjust="spacing" textLength="120" x="869" y="777.2051">memory: Memory</text><line style="stroke:#181818;stroke-width:0.5;" x1="850" x2="1265" y1="784.5069" y2="784.5069"/><ellipse cx="860" cy="798.1553" fill="#84BE84" rx="3" ry="3" style="stroke:#038048;stroke-width:1.0;"/><text fill="#000000" font-family="sans-serif" font-size="14" lengthAdjust="spacing" textLength="391" x="869" y="801.502">load_program(filename: str, verbose: bool, pid: int): tuple</text><ellipse cx="860" cy="814.4522" fill="#84BE84" rx="3" ry="3" style="stroke:#038048;stroke-width:1.0;"/><text fill="#000000" font-family="sans-serif" font-size="14" lengthAdjust="spacing" textLength="124" x="869" y="817.7989">print_page_table()</text></g><!--class PCB--><g id="elem_PCB"><rect fill="#F1F1F1" height="48" id="PCB" rx="2.5" ry="2.5" style="stroke:#181818;stroke-width:0.5;" width="61" x="1601" y="752.65"/><ellipse cx="1616" cy="768.65" fill="#ADD1B2" rx="11" ry="11" style="stroke:#181818;stroke-width:1.0;"/><path d="M1618.9688,774.2906 Q1618.3906,774.5875 1617.75,774.7281 Q1617.1094,774.8844 1616.4063,774.8844 Q1613.9063,774.8844 1612.5781,773.2438 Q1611.2656,771.5875 1611.2656,768.4625 Q1611.2656,765.3375 1612.5781,763.6813 Q1613.9063,762.025 1616.4063,762.025 Q1617.1094,762.025 1617.75,762.1813 Q1618.4063,762.3375 1618.9688,762.6344 L1618.9688,765.3531 Q1618.3438,764.775 1617.75,764.5094 Q1617.1563,764.2281 1616.5313,764.2281 Q1615.1875,764.2281 1614.5,765.3063 Q1613.8125,766.3688 1613.8125,768.4625 Q1613.8125,770.5563 1614.5,771.6344 Q1615.1875,772.6969 1616.5313,772.6969 Q1617.1563,772.6969 1617.75,772.4313 Q1618.3438,772.15 1618.9688,771.5719 L1618.9688,774.2906 Z " fill="#000000"/><text fill="#000000" font-family="sans-serif" font-size="14" lengthAdjust="spacing" textLength="29" x="1630" y="773.4967">PCB</text><line style="stroke:#181818;stroke-width:0.5;" x1="1602" x2="1661" y1="784.65" y2="784.65"/><line style="stroke:#181818;stroke-width:0.5;" x1="1602" x2="1661" y1="792.65" y2="792.65"/></g><!--class SWI--><g id="elem_SWI"><rect fill="#F1F1F1" height="48" id="SWI" rx="2.5" ry="2.5" style="stroke:#181818;stroke-width:0.5;" width="57" x="1697" y="752.65"/><ellipse cx="1712" cy="768.65" fill="#ADD1B2" rx="11" ry="11" style="stroke:#181818;stroke-width:1.0;"/><path d="M1714.9688,774.2906 Q1714.3906,774.5875 1713.75,774.7281 Q1713.1094,774.8844 1712.4063,774.8844 Q1709.9063,774.8844 1708.5781,773.2438 Q1707.2656,771.5875 1707.2656,768.4625 Q1707.2656,765.3375 1708.5781,763.6813 Q1709.9063,762.025 1712.4063,762.025 Q1713.1094,762.025 1713.75,762.1813 Q1714.4063,762.3375 1714.9688,762.6344 L1714.9688,765.3531 Q1714.3438,764.775 1713.75,764.5094 Q1713.1563,764.2281 1712.5313,764.2281 Q1711.1875,764.2281 1710.5,765.3063 Q1709.8125,766.3688 1709.8125,768.4625 Q1709.8125,770.5563 1710.5,771.6344 Q1711.1875,772.6969 1712.5313,772.6969 Q1713.1563,772.6969 1713.75,772.4313 Q1714.3438,772.15 1714.9688,771.5719 L1714.9688,774.2906 Z " fill="#000000"/><text fill="#000000" font-family="sans-serif" font-size="14" lengthAdjust="spacing" textLength="25" x="1726" y="773.4967">SWI</text><line style="stroke:#181818;stroke-width:0.5;" x1="1698" x2="1753" y1="784.65" y2="784.65"/><line style="stroke:#181818;stroke-width:0.5;" x1="1698" x2="1753" y1="792.65" y2="792.65"/></g><!--link Loader to MMU--><g id="link_Loader_MMU"><path codeLine="122" d="M1057.5,358.97 C1057.5,442.79 1057.5,625.51 1057.5,715.93 " fill="none" id="Loader-to-MMU" style="stroke:#181818;stroke-width:1.0;"/><polygon fill="#181818" points="1057.5,727.93,1061.5,721.93,1057.5,715.93,1053.5,721.93,1057.5,727.93" style="stroke:#181818;stroke-width:1.0;"/><text fill="#000000" font-family="sans-serif" font-size="13" lengthAdjust="spacing" textLength="8" x="1048.8625" y="378.7299">1</text><text fill="#000000" font-family="sans-serif" font-size="13" lengthAdjust="spacing" textLength="8" x="1048.9375" y="717.0995">1</text></g><!--link Memory to Loader--><g id="link_Memory_Loader"><path codeLine="123" d="M1057.5,218.36 C1057.5,239.62 1057.5,248.71 1057.5,265.92 " fill="none" id="Memory-to-Loader" style="stroke:#181818;stroke-width:1.0;"/><polygon fill="#181818" points="1057.5,277.92,1061.5,271.92,1057.5,265.92,1053.5,271.92,1057.5,277.92" style="stroke:#181818;stroke-width:1.0;"/><text fill="#000000" font-family="sans-serif" font-size="13" lengthAdjust="spacing" textLength="8" x="1049.2313" y="238.0488">1</text><text fill="#000000" font-family="sans-serif" font-size="13" lengthAdjust="spacing" textLength="8" x="1048.8125" y="266.7746">1</text></g><!--reverse link VMShell to CPU--><g id="link_VMShell_CPU"><path codeLine="124" d="M823.926,1129.2747 C829.686,1133.5247 825.77,1130.6 831.5,1134.74 C859.05,1154.66 887.7,1174.59 916.88,1194.3 " fill="none" id="VMShell-backto-CPU" style="stroke:#181818;stroke-width:1.0;"/><polygon fill="#181818" points="814.27,1122.15,816.7231,1128.931,823.926,1129.2747,821.4729,1122.4937,814.27,1122.15" style="stroke:#181818;stroke-width:1.0;"/><text fill="#000000" font-family="sans-serif" font-size="13" lengthAdjust="spacing" textLength="8" x="822.5528" y="1126.0837">1</text><text fill="#000000" font-family="sans-serif" font-size="13" lengthAdjust="spacing" textLength="10" x="894.6545" y="1183.9356">N</text></g><!--reverse link VMShell to MMU--><g id="link_VMShell_MMU"><path codeLine="125" d="M826.24,776.65 C837.8,776.65 837.37,776.65 848.93,776.65 " fill="none" id="VMShell-backto-MMU" style="stroke:#181818;stroke-width:1.0;"/><polygon fill="#181818" points="814.24,776.65,820.24,780.65,826.24,776.65,820.24,772.65,814.24,776.65" style="stroke:#181818;stroke-width:1.0;"/><text fill="#000000" font-family="sans-serif" font-size="13" lengthAdjust="spacing" textLength="8" x="822.5222" y="773.5658">1</text><text fill="#000000" font-family="sans-serif" font-size="13" lengthAdjust="spacing" textLength="8" x="833.2908" y="773.4496">1</text></g><!--link MMU to CPU--><g id="link_MMU_CPU"><path codeLine="126" d="M1082.32,825.52 C1121.4,900.91 1194.8773,1042.6364 1268.0573,1183.8064 " fill="none" id="MMU-to-CPU" style="stroke:#181818;stroke-width:1.0;"/><polygon fill="#181818" points="1273.58,1194.46,1274.3699,1187.2923,1268.0573,1183.8064,1267.2675,1190.9741,1273.58,1194.46" style="stroke:#181818;stroke-width:1.0;"/><text fill="#000000" font-family="sans-serif" font-size="13" lengthAdjust="spacing" textLength="8" x="1077.1177" y="845.1698">1</text><text fill="#000000" font-family="sans-serif" font-size="13" lengthAdjust="spacing" textLength="8" x="1261.7381" y="1184.0993">1</text></g><!--link Register to CPU--><g id="link_Register_CPU"><path codeLine="127" d="M1433.5,858.04 C1433.5,939.74 1433.5,1059.44 1433.5,1182.6 " fill="none" id="Register-to-CPU" style="stroke:#181818;stroke-width:1.0;"/><polygon fill="#181818" points="1433.5,1194.6,1437.5,1188.6,1433.5,1182.6,1429.5,1188.6,1433.5,1194.6" style="stroke:#181818;stroke-width:1.0;"/><text fill="#000000" font-family="sans-serif" font-size="13" lengthAdjust="spacing" textLength="8" x="1425.1563" y="877.7517">1</text><text fill="#000000" font-family="sans-serif" font-size="13" lengthAdjust="spacing" textLength="10" x="1423.3672" y="1183.2527">N</text></g><!--link PCB to CPU--><g id="link_PCB_CPU"><path codeLine="128" d="M1630.4,801.03 C1627.27,858.64 1616.25,1011.73 1583.5,1134.74 C1578.26,1154.42 1575.9732,1163.0455 1569.4132,1183.0855 " fill="none" id="PCB-to-CPU" style="stroke:#181818;stroke-width:1.0;"/><polygon fill="#181818" points="1565.68,1194.49,1571.3481,1190.0321,1569.4132,1183.0855,1563.7451,1187.5433,1565.68,1194.49" style="stroke:#181818;stroke-width:1.0;"/><text fill="#000000" font-family="sans-serif" font-size="13" lengthAdjust="spacing" textLength="8" x="1621.1569" y="820.8838">1</text><text fill="#000000" font-family="sans-serif" font-size="13" lengthAdjust="spacing" textLength="8" x="1560.6842" y="1184.13">1</text></g><!--link SWI to CPU--><g id="link_SWI_CPU"><path codeLine="129" d="M1726.12,801.09 C1726.89,859.48 1724.25,1015.34 1679.5,1134.74 C1672.01,1154.72 1668.5368,1163.9125 1658.8768,1183.6425 " fill="none" id="SWI-to-CPU" style="stroke:#181818;stroke-width:1.0;"/><polygon fill="#181818" points="1653.6,1194.42,1659.8309,1190.7902,1658.8768,1183.6425,1652.6459,1187.2723,1653.6,1194.42" style="stroke:#181818;stroke-width:1.0;"/><text fill="#000000" font-family="sans-serif" font-size="13" lengthAdjust="spacing" textLength="8" x="1717.3384" y="820.5584">1</text><text fill="#000000" font-family="sans-serif" font-size="13" lengthAdjust="spacing" textLength="8" x="1650.6648" y="1184.0584">1</text></g><!--SRC=[dLTBR-Cs4BxdLn0vAMiRQ78qsXuQxA70Pf4stVQmM0WKDRQ95Kc53oTfqV_U8KrHfC8OQ7A8o7bndXzfDb1Zo9zt3mSO1lBF1S6_3H4Wb7xPahlmZKGDUsuiQBCblyTbv0oAzg2tv5FuHY8R7Kh-vi31ZxVtNtwEP0bFaPhCqlwbGhekQJksC-sZ9vHqz49mIItqMpAWKv7yHBaj1QdMd1w7rd81ff1bWsBVjuJBYV3egBHEL4WtEUq8kbC6_UcK6Y9jr6glgJ3joD6XdZER7N-aGni5Miyg18B2RFo17Nn8naxv5C9XGUw-XEqgv7morkpu098A2FBhT9OFDTYyofNGKAamSRMJoMAYAIVxLgkEoqGJkyUqzcL96rGMoaBRW_yqQ4zokTyIBFywOnhh2yQLZ0LQavD2bMMKqsog-LMMwnMwJhLjiQ5QBd4j6IHFG6kbUoV69gosvECpWz4Rddt5lBIpN4dVOxNjWYOebrN6IFVGMjeDy_dZd9GzH0d3_vu5p4ILJdIW6wht9gy3Kq9GsJVncmgxZwqxoIhplAp-QHfRslSQZ0dr9p-H7qgVSToNCOVXclqEsSNTlnSNB834QReZHgpYCSl3Yvd0Sbat3Z35XLK-GblwrrJSNPCkP2lsRl9WWfs4KpsrD1kY5NdIt3TUb6jpn-ZWoc7mA5CHlPgdS8KhXbw3j3N1ACC6eBefThSUKKfIwfmKpGbSKomfu2As3API4-LIS-yLOBBJ0A6_SgJBkYxqOfRYQglcYJZRhpwHUVqApLD9olBcnKZvG9JutnUGAMwWeeaYftkLiXfiOxDRoD6MEQsnx05Pj6CUEMhMxs_ptIlShKCxKz80SvRZCE0jsNPE6rkODOunF6ddXWfpHt7a-We3cmuFFvCbX61lTcgCJyZyYkhVKdvzbIjHJidmUYTwh6sB-U6sRPkoNkjggQh8L8pwckmu1lLcqXVmiaw9HNpxh2HKRZwFVEit0uzwLyjfdylYfy2BJADy0FQzvCwTlWFB3fuKx6C8toAZ1wPwQBAmCXcK_yE3vDSGOF5lqeTdtovd36GUOhuQDOB6I-Cw9YrkR-BMtxA-IoQqovIDwwocpBxVWd23vUFmyduBFJzoJDRxFL173zRNs4KzF4Tv9DnaX4NAy8KJxFl4dZsur5FwNMhYo9l9TIop41MPMF7vELRb6dnT3P2Fox9TrVWo0yA2YMDbbOOAVyRa-zFv_kh_w9zA2D3p_NLt5g_FFr7V6EJ5Yw7oliBZuqFaylgIR3OVmjU_Y-DzcfFZ3vBfvuqdVTXelZ_O3RdyVEcld3UOaqsCCJVe5T8h936YfVlRNru9F_prwvBs7m00]--></g></svg>